<svg viewBox="0 0 80 80" fill="none" xmlns="http://www.w3.org/2000/svg">
<path d="M35.896 55.25H44.204V63H35.896V55.25ZM26.038 32.806C26.038 30.5327 26.3687 28.466 27.03 26.606C27.7327 24.746 28.7247 23.1547 30.006 21.832C31.3287 20.5093 32.8993 19.4967 34.718 18.794C36.578 18.05 38.6447 17.678 40.918 17.678C42.8193 17.678 44.576 17.9673 46.188 18.546C47.8413 19.0833 49.2673 19.8893 50.466 20.964C51.706 21.9973 52.6773 23.2993 53.38 24.87C54.0827 26.4407 54.434 28.218 54.434 30.202C54.434 31.6487 54.2687 32.9093 53.938 33.984C53.6487 35.0173 53.2353 35.9267 52.698 36.712C52.202 37.456 51.6233 38.138 50.962 38.758C50.3007 39.3367 49.6393 39.9153 48.978 40.494C48.1927 41.1553 47.4693 41.796 46.808 42.416C46.1467 43.036 45.568 43.7387 45.072 44.524C44.576 45.268 44.1833 46.1567 43.894 47.19C43.646 48.2233 43.522 49.484 43.522 50.972H36.826C36.826 49.1533 36.9087 47.624 37.074 46.384C37.2807 45.1027 37.5907 43.9867 38.004 43.036C38.4173 42.0853 38.9133 41.2587 39.492 40.556C40.112 39.812 40.8353 39.0887 41.662 38.386C42.3233 37.8073 42.9433 37.27 43.522 36.774C44.142 36.278 44.6793 35.7407 45.134 35.162C45.63 34.542 46.002 33.86 46.25 33.116C46.5393 32.372 46.684 31.4833 46.684 30.45C46.684 29.21 46.4567 28.156 46.002 27.288C45.5887 26.3787 45.072 25.6553 44.452 25.118C43.832 24.5807 43.1707 24.188 42.468 23.94C41.7653 23.692 41.1453 23.568 40.608 23.568C38.0453 23.568 36.144 24.4153 34.904 26.11C33.7053 27.7633 33.106 29.9953 33.106 32.806H26.038Z" fill="white"/>
</svg>